<?xml version="1.0" encoding="UTF-8" standalone="no"?>
<svg xmlns="http://www.w3.org/2000/svg" width="16" height="16" viewBox="0 0 300 300">
  <!-- R shape with rounded corners -->
  <path d="M60,50 C60,50 60,50 60,50 L240,50 C251,50 260,59 260,70 L260,130 C260,141 251,150 240,150 L200,150 L150,230 L100,150 L60,150 C49,150 40,141 40,130 L40,70 C40,59 49,50 60,50 Z" fill="#b99d7f"/>
  
  <!-- Sun (circle) -->
  <circle cx="110" cy="90" r="25" fill="#f7e4c0"/>
  
  <!-- Mountains -->
  <path d="M40,150 L150,60 L260,150 Z" fill="#c2d5a8"/>
  
  <!-- Wave -->
  <path d="M40,150 L110,150 Q130,120 150,150 Q170,180 190,150 L260,150 
           C210,190 170,230 150,240 C130,230 90,190 40,150 Z" fill="#8ac5cf"/>
  
  <!-- Wave crest (white curl) -->
  <path d="M140,170 C150,160 160,170 150,180 C140,170 135,180 140,170 Z" fill="white"/>
</svg>